<?xml version="1.0" encoding="UTF-8" standalone="no"?>
<!-- Created with Inkscape (http://www.inkscape.org/) -->

<svg
   width="50mm"
   height="50mm"
   viewBox="0 0 50 50"
   version="1.1"
   id="svg1"
   inkscape:version="1.4.3 (0d15f75, 2025-12-25)"
   sodipodi:docname="simplebudget-normalized.svg"
   inkscape:export-filename="simplebudget.png"
   inkscape:export-xdpi="96"
   inkscape:export-ydpi="96"
   xmlns:inkscape="http://www.inkscape.org/namespaces/inkscape"
   xmlns:sodipodi="http://sodipodi.sourceforge.net/DTD/sodipodi-0.dtd"
   xmlns:xlink="http://www.w3.org/1999/xlink"
   xmlns="http://www.w3.org/2000/svg"
   xmlns:svg="http://www.w3.org/2000/svg">
  <sodipodi:namedview
     id="namedview1"
     pagecolor="#ffffff"
     bordercolor="#000000"
     borderopacity="0.25"
     inkscape:showpageshadow="2"
     inkscape:pageopacity="0.0"
     inkscape:pagecheckerboard="0"
     inkscape:deskcolor="#d1d1d1"
     inkscape:document-units="mm"
     inkscape:zoom="3.0196111"
     inkscape:cx="116.40572"
     inkscape:cy="94.217431"
     inkscape:window-width="1920"
     inkscape:window-height="1009"
     inkscape:window-x="1912"
     inkscape:window-y="-8"
     inkscape:window-maximized="1"
     inkscape:current-layer="layer1"
     showgrid="false" />
  <defs
     id="defs1">
    <linearGradient
       id="linearGradient71"
       inkscape:collect="always">
      <stop
         style="stop-color:#aae9ef;stop-opacity:1;"
         offset="0"
         id="stop71" />
      <stop
         style="stop-color:#aae9ef;stop-opacity:0;"
         offset="1"
         id="stop72" />
    </linearGradient>
    <linearGradient
       id="linearGradient11"
       inkscape:collect="always">
      <stop
         style="stop-color:#4c809e;stop-opacity:1;"
         offset="0"
         id="stop11" />
      <stop
         style="stop-color:#4c809e;stop-opacity:0;"
         offset="1"
         id="stop12" />
    </linearGradient>
    <linearGradient
       id="linearGradient1"
       inkscape:collect="always">
      <stop
         style="stop-color:#0e1417;stop-opacity:1;"
         offset="0"
         id="stop1" />
      <stop
         style="stop-color:#263842;stop-opacity:1;"
         offset="1"
         id="stop2" />
    </linearGradient>
    <inkscape:path-effect
       effect="fillet_chamfer"
       id="path-effect46"
       is_visible="true"
       lpeversion="1"
       nodesatellites_param="F,0,0,1,0,0,0,1 @ F,0,0,1,0,0,0,1 @ F,0,0,1,0,0,0,1 @ F,0,0,1,0,0,0,1 @ F,0,0,1,0,0,0,1 @ F,0,0,1,0,0,0,1 @ F,0,0,1,0,0,0,1 @ F,0,0,1,0,0,0,1"
       radius="0"
       unit="px"
       method="auto"
       mode="F"
       chamfer_steps="1"
       flexible="false"
       use_knot_distance="true"
       apply_no_radius="true"
       apply_with_radius="true"
       only_selected="false"
       hide_knots="false" />
    <linearGradient
       id="swatch45">
      <stop
         style="stop-color:#684b00;stop-opacity:1;"
         offset="0"
         id="stop45" />
    </linearGradient>
    <linearGradient
       id="swatch3"
       inkscape:swatch="solid">
      <stop
         style="stop-color:#bd9b00;stop-opacity:1;"
         offset="0"
         id="stop3" />
    </linearGradient>
    <filter
       style="color-interpolation-filters:sRGB"
       inkscape:label="Drop Shadow"
       id="filter36"
       x="-0.041801356"
       y="-0.031394742"
       width="1.1271458"
       height="1.0954922">
      <feFlood
         result="flood"
         in="SourceGraphic"
         flood-opacity="0.101961"
         flood-color="rgb(0,0,0)"
         id="feFlood35" />
      <feGaussianBlur
         result="blur"
         in="SourceGraphic"
         stdDeviation="0.400000"
         id="feGaussianBlur35" />
      <feOffset
         result="offset"
         in="blur"
         dx="1.000000"
         dy="1.000000"
         id="feOffset35" />
      <feComposite
         result="comp1"
         operator="in"
         in="flood"
         in2="offset"
         id="feComposite35" />
      <feComposite
         result="comp2"
         operator="over"
         in="SourceGraphic"
         in2="comp1"
         id="feComposite36" />
    </filter>
    <linearGradient
       inkscape:collect="always"
       xlink:href="#linearGradient1"
       id="linearGradient3"
       x1="2.424825"
       y1="27.424826"
       x2="52.424824"
       y2="27.424826"
       gradientUnits="userSpaceOnUse" />
    <linearGradient
       inkscape:collect="always"
       xlink:href="#linearGradient11"
       id="linearGradient12"
       x1="82.145213"
       y1="84.779169"
       x2="123.59288"
       y2="84.779169"
       gradientUnits="userSpaceOnUse" />
    <linearGradient
       inkscape:collect="always"
       xlink:href="#linearGradient71"
       id="linearGradient72"
       x1="82.095215"
       y1="84.779167"
       x2="123.64288"
       y2="84.779167"
       gradientUnits="userSpaceOnUse" />
  </defs>
  <path
     style="mix-blend-mode:normal;fill:url(#linearGradient3);fill-opacity:1;fill-rule:nonzero;stroke:none;stroke-width:4.84965;stroke-linecap:butt;stroke-linejoin:round;stroke-dasharray:none;stroke-dashoffset:0;stroke-opacity:1"
     id="rect3"
     width="50"
     height="50"
     x="2.424825"
     y="2.424825"
     inkscape:path-effect="#path-effect46"
     sodipodi:type="rect"
     d="m 12.424825,2.424825 h 30 c 5.54,0 10,4.46 10,10 v 30 c 0,5.54 -4.46,10 -10,10 h -30 c -5.54,0 -10,-4.46 -10,-10 v -30 c 0,-5.54 4.46,-10 10,-10 z"
     rx="10"
     inkscape:label="rect3"
     transform="translate(-2.424825,-2.424825)" />
  <g
     inkscape:label="Layer 1"
     inkscape:groupmode="layer"
     id="layer1"
     transform="translate(-77.996651,-59.779171)">
    <g
       id="text1-8"
       style="font-weight:bold;font-size:44.8117px;font-family:'Leelawadee UI';-inkscape-font-specification:'Leelawadee UI Bold';letter-spacing:-8.04405px;fill:#4c809e;stroke-width:0.102886;stroke-linecap:round;stroke-linejoin:bevel"
       aria-label="sB">
      <path
         style="font-weight:normal;font-family:Roboto;-inkscape-font-specification:'Roboto, @wght=200';font-variation-settings:'wght' 200"
         d="m 97.511509,94.691128 q 0,-1.115916 -0.503256,-2.056787 -0.503256,-0.962751 -1.750457,-1.837979 -1.247201,-0.89711 -3.522795,-1.794219 -1.706695,-0.678302 -3.019538,-1.356604 -1.290962,-0.700183 -2.188071,-1.487888 -0.875229,-0.787706 -1.312843,-1.728577 -0.437614,-0.94087 -0.437614,-2.122429 0,-1.269081 0.459495,-2.341236 0.481375,-1.094036 1.378485,-1.881741 0.897109,-0.809587 2.16619,-1.247201 1.269081,-0.459495 2.866373,-0.459495 2.275594,0 3.894767,0.787706 1.619173,0.787705 2.494401,2.231832 0.89711,1.444128 0.89711,3.457153 h -1.662935 q 0,-1.509769 -0.656421,-2.603805 -0.656421,-1.094035 -1.903622,-1.684815 -1.2472,-0.61266 -3.0633,-0.61266 -1.85986,0 -3.019538,0.634541 -1.159678,0.634541 -1.706695,1.619173 -0.525138,0.962751 -0.525138,2.034906 0,0.787706 0.28445,1.466008 0.284449,0.678302 0.94087,1.290962 0.656422,0.61266 1.794219,1.2472 1.137797,0.61266 2.844492,1.312843 2.363117,0.91899 3.894767,1.903622 1.53165,0.984632 2.253714,2.231833 0.743944,1.22532 0.743944,2.932015 0,1.422247 -0.503257,2.581924 -0.503256,1.159678 -1.444127,1.991145 -0.94087,0.831465 -2.275594,1.290965 -1.334723,0.43761 -2.975777,0.43761 -2.47252,0 -4.201096,-0.87523 -1.728577,-0.875226 -2.603805,-2.341233 -0.875229,-1.487889 -0.875229,-3.260226 h 1.641054 q 0.08752,1.969264 1.028393,3.041419 0.940871,1.050274 2.297475,1.466007 1.356604,0.393853 2.713208,0.393853 1.772338,0 3.019539,-0.590779 1.2472,-0.61266 1.881741,-1.662934 0.656421,-1.072155 0.656421,-2.406879 z"
         id="path1" />
      <path
         style="font-weight:normal;font-family:Roboto;-inkscape-font-specification:'Roboto, Normal'"
         d="m 111.41381,85.588752 h -8.07398 l -0.0438,-3.39151 h 7.33004 q 1.8161,0 3.1727,-0.61266 1.35661,-0.61266 2.10055,-1.750457 0.76583,-1.159678 0.76583,-2.75697 0,-1.750457 -0.67831,-2.844493 -0.65642,-1.115916 -2.0349,-1.619172 -1.35661,-0.525137 -3.45716,-0.525137 h -6.21412 v 28.401167 h -4.22298 V 68.6312 h 10.4371 q 2.45064,0 4.37615,0.503256 1.9255,0.481376 3.26022,1.53165 1.35661,1.028394 2.05679,2.625686 0.70018,1.597292 0.70018,3.829124 0,1.969265 -1.00651,3.566557 -1.00651,1.575411 -2.80073,2.581924 -1.77234,1.006512 -4.15734,1.290962 z m -0.19692,14.900768 h -9.53999 l 2.385,-3.435275 h 7.15499 q 2.01302,0 3.41339,-0.700182 1.42225,-0.700183 2.16619,-1.969265 0.74394,-1.290962 0.74394,-3.041419 0,-1.772337 -0.63454,-3.063299 -0.63454,-1.290962 -1.99114,-1.991145 -1.35661,-0.700183 -3.50092,-0.700183 h -6.01719 l 0.0438,-3.39151 h 8.22715 l 0.89711,1.22532 q 2.29747,0.196926 3.89476,1.312842 1.5973,1.094036 2.42876,2.800731 0.85335,1.706696 0.85335,3.763483 0,2.975777 -1.31284,5.032564 -1.29096,2.034906 -3.65408,3.107061 -2.36312,1.050277 -5.5577,1.050277 z"
         id="path2" />
    </g>
  </g>
</svg>
